<?xml version="1.0" encoding="utf-8"?>
<!-- Generator: Adobe Illustrator 29.1.0, SVG Export Plug-In . SVG Version: 9.03 Build 55587)  -->
<svg version="1.1" xmlns="http://www.w3.org/2000/svg" xmlns:xlink="http://www.w3.org/1999/xlink" x="0px" y="0px"
	 viewBox="0 0 103.09 165.24" enable-background="new 0 0 103.09 165.24" xml:space="preserve">
<g id="Layer_1" display="none">
	
		<image display="inline" overflow="visible" width="1280" height="960" xlink:href="C264F744.jpg"  transform="matrix(0.4212 0 0 0.4212 -581.1526 -194.6957)">
	</image>
</g>
<g id="user-girl-2" display="none">
	<path display="inline" fill="none" stroke="#000000" stroke-width="5" stroke-miterlimit="10" d="M259.38,8.53
		c-3.11-1.18-8.05-5.22-9.54-4.76c-0.52,0.16-1.88,0.83-4.61,2.16c-2.25,1.1-3.38,1.66-4.28,2.16c-3.46,1.95-3.29,2.44-4.94,3.03
		c-2.82,1.01-3.35-0.42-5.92,0.43c-2.55,0.84-4.18,2.94-5.6,4.76c-1.91,2.46-2.89,4.8-4.28,8.22c-1.54,3.77-1.29,4.16-3.29,9.52
		c-1.74,4.65-1.99,4.56-2.63,6.93c-0.95,3.52-1.83,6.8-0.99,9.95c1.27,4.75,5.41,5.29,5.27,8.22c-0.13,2.7-3.7,3.54-3.62,5.63
		c0.05,1.24,3.02,4.49,7.9,6.06"/>
	<path display="inline" fill="none" stroke="#000000" stroke-width="5" stroke-miterlimit="10" d="M256.75,8.53
		c3.63-1.55,7.27-1.85,8.23-1.3c0.97,0.55,2.41,2.4,5.27,6.06c2.71,3.48,2.86,3.9,2.96,4.33c0.98,4.11-2.67,7.12-1.65,9.95
		c0.78,2.16,3.08,0.93,6.25,3.9c1.19,1.12,3.41,3.19,3.62,6.06c0.35,4.7-5.01,6.62-4.94,12.12c0.04,3.03,1.68,3.43,1.65,6.49
		c-0.07,5.58-5.6,10.23-6.25,9.52c-0.5-0.54,2.72,4.36,2.46,4.14c-0.29-0.24-5.98-2.78-8.71,2.35"/>
	<path display="inline" fill="none" stroke="#000000" stroke-width="5" stroke-miterlimit="10" d="M256.35,18.8
		c-1.21,6.09-4.09,4.1-3.22,6.61c1.29,3.74,3.19,4.79,3.62,9.09c0,0,0.06,0.64,0,6.93l0,0c-1.76,0.87-3.51,1.73-5.27,2.6l0,0
		c-0.07,5.18-0.92,6.57-1.65,6.93c-1.44,0.7-2.58-2.56-5.92-3.46c-2.68-0.72-5.08,0.52-6.58,1.3c-3.98,2.05-4.52,4.81-6.25,4.33
		c-2.31-0.64-1.77-5.66-5.27-8.22c-0.72-0.53-2.69-1.75-4.94-0.87c-2.63,1.03-6.25,12.98-4.61,7.79"/>
	<path display="inline" fill="none" stroke="#000000" stroke-width="5" stroke-miterlimit="10" d="M256.35,18.8
		c4.07,2.14,4.35-1.08,5.01,0.98c1.57,4.96-1.06,8.88,0.99,12.55c1.73,3.1,4.54,2.01,5.6,5.19c0.73,2.19-0.51,3.02-0.33,6.93
		c0.21,4.59,2.01,5.54,1.97,9.52c-0.02,2.4-0.68,3.63-1.65,6.49c-1.96,5.81-1.72,8.14-2.96,13.42c-2.67,11.33-8.07,18.82-9.54,20.78
		c-3.26,4.32-5.68,7.52-9.54,8.22c-5.58,1.01-10.12-3.91-12.51-6.49c-4.51-4.89-6.27-10.68-8.56-18.18
		c-1.79-5.85-4.25-20.54-5.27-31.6"/>
	<path display="inline" fill="none" stroke="#000000" stroke-width="5" stroke-miterlimit="10" d="M252.14,98.99
		c-0.11,1.72,0.18,6.8,0.33,9.09c0.24,3.75,0.29,5.63,0.99,6.93c1.48,2.73,4.51,1.9,8.56,2.6c3.12,0.54,6.03,2.38,11.85,6.06
		c6.97,4.41,10.46,6.62,13.17,10.82c3.85,5.99,4.96,12.58,5.27,14.72c0.57,4.03,0.43,7.46,0.33,8.22
		c-1.4,10.79-60.99,8.54-99.4,6.06"/>
	<path display="inline" fill="none" stroke="#000000" stroke-width="5" stroke-miterlimit="10" d="M235.35,98.99
		c0.48,2.18,0.98,9.29-0.33,12.55c-1.33,3.29-3.85,4.56-8.56,6.49c-10.32,4.24-13.36,4.4-18.1,6.93c-4.22,2.24-7.91,4.26-10.86,8.66
		c-6.04,9-4.89,25.08-4.28,29.86"/>
	<path display="inline" fill="none" stroke="#000000" stroke-width="5" stroke-miterlimit="10" d="M224.49,118.04
		c2.29,2.18,7.27,6.76,12.18,8.22c4.25,1.27,7.44,0.9,11.52,0.43c7.59-0.87,10.6-3.47,11.52-4.33c1.04-0.97,4.44-3.23,4.94-3.9"/>
	<path display="inline" stroke="#000000" stroke-width="5" stroke-miterlimit="10" d="M230.29,53.39c-0.23,0.5-0.54,1.36-0.63,2.49
		c-0.13,1.7,0.25,3.96,0.98,4.15c0.61,0.17,1.27-1.18,1.54-1.97c0.47-1.42,0.35-3.11-0.14-4.36c-0.29-0.73-0.66-1.19-0.91-1.45"/>
	<path display="inline" stroke="#000000" stroke-width="5" stroke-miterlimit="10" d="M255.55,52.69c-0.16,0.68-0.38,1.85-0.44,3.39
		c-0.09,2.3,0.17,5.38,0.69,5.65c0.43,0.22,0.89-1.61,1.08-2.68c0.33-1.93,0.25-4.23-0.1-5.93c-0.2-1-0.46-1.62-0.64-1.98"/>
	<path display="inline" fill="none" stroke="#000000" stroke-width="2" stroke-miterlimit="10" d="M243.48,68.48
		c1.71,1.07,2.61,2.96,2.29,4.76c-0.34,1.91-1.91,2.9-2.18,3.06"/>
	<path display="inline" fill="none" stroke="#000000" stroke-width="2" stroke-miterlimit="10" d="M239.25,87.12
		c0.47,1.85,1.63,3.23,3.03,3.55c1.72,0.41,3.53-0.86,4.33-3.13"/>
	<path display="inline" fill="none" stroke="#000000" stroke-width="2" stroke-miterlimit="10" d="M-146.51,70.35"/>
	<path display="inline" fill="none" stroke="#000000" stroke-width="2" stroke-miterlimit="10" d="M-153.86,69.92"/>
</g>
<g id="Layer_3" display="none">
	
		<image display="inline" overflow="visible" width="1280" height="960" xlink:href="C264F745.jpg"  transform="matrix(0.4149 0 0 0.4149 -739.2164 -283.9936)">
	</image>
</g>
<g id="user-boy">
	<path fill="none" stroke="#F6EEEE" stroke-width="3.5" stroke-miterlimit="10" d="M28.43,50.87c-0.09-0.1-0.23-0.3-0.42-0.59"/>
	<path fill="none" stroke="#F6EEEE" stroke-width="3.5" stroke-miterlimit="10" d="M61.17,31.35"/>
	<path fill="none" stroke="#F6EEEE" stroke-width="3.5" stroke-miterlimit="10" d="M33.85,27.3"/>
	<path fill="none" stroke="#F6EEEE" stroke-width="3.5" stroke-miterlimit="10" d="M39.85,16.3"/>
	<path fill="none" stroke="#F6EEEE" stroke-width="3.5" stroke-miterlimit="10" d="M40.43,14.16"/>
	<path fill="none" stroke="#F6EEEE" stroke-width="3.5" stroke-miterlimit="10" d="M75.75,23.38c-0.28,2.87-2.91,9.07-6.9,8.92
		c-0.16-0.01-0.33-0.02-0.49-0.05c-1.14-0.19-2.28,0.2-2.94,1.15c-0.42,0.6-0.92,1.17-1.45,1.63c-1.43,1.21-2.81,1.41-4.88,1.69
		c-3.35,0.46-4.04-0.42-5.75,0.64c-1.71,1.08-2.67,3.01-2.86,3.41c-1.01,2.11-0.64,3.29-1.43,4.41c-0.51,0.72-5.43-0.84-9.27-2.11
		c-1.63-0.06-5.04-0.08-5.84,0.14c-2.15,0.59-3.46,2.31-4.21,3.31c-0.43,0.58-1.08,1.33-1.78,2.15c0.03,0.5,0.05,1.04,0.07,1.61
		c-1.01-1.54-3.15-5.51-3.43-9.53c-0.3-4.28,1.24-7.36,1.93-8.69c0.96-1.86,2.12-3.19,3.22-4.13c1.19-1.02,1.31-2.8,0.26-3.97
		c-0.57-0.63-0.98-1.23-1.01-1.67c-0.1-1.46,0.98-2.57,1.65-3.26c1.55-1.57,2.84-1.58,5.23-2.53c0.61-0.24,2.03-0.95,3.44-1.71
		c0.72-0.39,1.26-1.03,1.53-1.8c0.75-2.11,1.73-4.59,2.18-5.52c1.65-3.41,4.56-4.33,6.88-5.06c3.75-1.19,6.92-0.52,9.35,0
		c1.39,0.29,2.35,0.49,3.58,1.08c2.49,1.2,4.87,4.57,6.47,7.15c0.47,0.77,1.11,1.41,1.83,1.94c1.12,0.81,2.09,1.83,2.86,2.69
		c0.45,0.5,0.76,1.11,0.9,1.77c0.36,1.59,0.79,2.99,0.86,3.81C75.75,20.85,75.86,22.19,75.75,23.38z"/>
	<path fill="none" stroke="#F6EEEE" stroke-width="3.5" stroke-miterlimit="10" d="M71.4,32.5c0.88,3.02,2.38,7.98,2.67,12.17
		c0.33,4.55,0.06,7.94-0.24,11.59c-0.34,3.95-1.7,17.48-3.11,24.26c-0.28,5.75-1.21,7.35-2.1,9.68c-0.58,1.49-1.06,1.74-5.01,6.67
		v0.01c-0.78,0.97-1.69,2.12-2.76,3.49c-2.97,3.81-5.79,7.34-9.73,9.17c-1.46,0.66-3.23,1.18-4.96,0.24c-1.26-0.69-2-1.92-2.32-2.41
		c-4.84-7.91-3.51-4.36-5.97-8.76c-0.51-0.9-1.18-2.14-2.09-3.89c-4.61-8.8-6.93-13.28-7.45-17.01c-0.37-2.7-0.11-3.48-0.15-8.69
		c-0.04-5.56,0.01-13.58-0.17-18.74c-0.02-0.57-0.04-1.11-0.07-1.61c0.7-0.82,1.35-1.57,1.78-2.15c0.75-1,2.06-2.72,4.21-3.31
		c0.8-0.22,4.21-0.2,5.84-0.14c3.84,1.27,8.76,2.83,9.27,2.11c0.79-1.12,0.42-2.3,1.43-4.41c0.19-0.4,1.15-2.33,2.86-3.41
		c1.71-1.06,2.4-0.18,5.75-0.64c2.07-0.28,3.45-0.48,4.88-1.69"/>
	<path fill="none" stroke="#F6EEEE" stroke-width="3.5" stroke-miterlimit="10" d="M74.82,54.64c1.89-0.64,3.84,0.42,4.13,0.72
		c1.73,1.79,0.98,7.29-1.1,10.49c-0.55,0.84-1.98,3.31-4.13,3.26c-0.83-0.02,0.28,2.11-1.38,0.69"/>
	<path fill="none" stroke="#F6EEEE" stroke-width="3.5" stroke-miterlimit="10" d="M28.15,54.13c-1.25-1.28-3.15-1.6-3.58-1.45
		c-1.93,0.71-2.97,6.28-1.93,10.49c0,0,2.2,4,5.23,9.77l-1.65-3.26"/>
	<path fill="none" stroke="#F6EEEE" stroke-width="3.5" stroke-miterlimit="10" d="M49.85,75.14"/>
	<path fill="none" stroke="#F6EEEE" stroke-width="3.5" stroke-miterlimit="10" d="M46.13,75.14"/>
	<path fill="none" stroke="#F6EEEE" stroke-width="3.5" stroke-miterlimit="10" d="M101.14,155.76
		c-1.23,5.79-23.03,12.07-98.66,3.61c-2.49-14.21,2.03-20.83,4.29-23.86c4.03-5.38,17.91-13.11,24.66-15.34
		c1.35,1.76,4.75,5.96,6.98,9.19c2.73,3.96,2.93,4.55,4.95,7.23c2.77,3.67,5.05,6.08,6.61,7.6c0.77,0.76,1.44,1.38,1.92,1.81
		c2.54-3.02,6.39-9.3,7.7-11.21c2.06-3.01,2.92-4.68,4.96-7.24c1.71-2.15,4.49-4.65,6.03-6.13c0.42,0.1,0.88,0.21,1.39,0.34
		c3.23,0.83,5.41,1.74,9.08,3.26c4.13,1.71,6.93,3.4,12.11,6.51c3.94,2.37,4.37,2.85,4.67,3.26
		C101.89,140.05,101.47,154.17,101.14,155.76z"/>
	<path fill="none" stroke="#F6EEEE" stroke-width="3.5" stroke-miterlimit="10" d="M70.58,121.42c-1.54,1.48-4.32,3.98-6.03,6.13
		c-2.04,2.56-2.9,4.23-4.96,7.24c-1.31,1.91-5.16,8.19-7.7,11.21c-0.48-0.43-1.15-1.05-1.92-1.81c-1.56-1.52-3.84-3.93-6.61-7.6
		c-2.02-2.68-2.22-3.27-4.95-7.23c-2.23-3.23-5.63-7.43-6.98-9.19c0.91-0.3,1.69-0.5,2.3-0.58c0.55-0.07,2.2-0.23,3.3-1.8
		c1.36-1.93,1.09-4.8,0.83-8.68c-0.14-2.08-0.03-6.25,0.01-10.5c2.46,4.4,1.13,0.85,5.97,8.76c0.32,0.49,1.06,1.72,2.32,2.41
		c1.73,0.94,3.5,0.42,4.96-0.24c3.94-1.83,6.76-5.36,9.73-9.17c1.07-1.37,1.98-2.52,2.76-3.49c-0.11,3.33,0.1,8.6,0.11,11.5
		c0.02,3.51,0.05,8.47,2.48,11.21C67.26,120.8,68.19,120.88,70.58,121.42z"/>
	<path fill="none" stroke="#F6EEEE" stroke-width="3.5" stroke-miterlimit="10" d="M29.43,120.17c-0.07-0.07-0.12-0.14-0.17-0.21"/>
	<path fill="none" stroke="#F6EEEE" stroke-width="3.5" stroke-miterlimit="10" d="M68.6,121.4c-0.01,0.01-0.01,0.01-0.02,0.02"/>
	<path fill="none" stroke="#F6EEEE" stroke-width="3.5" stroke-miterlimit="10" d="M66.4,11.09"/>
	<path fill="none" stroke="#F6EEEE" stroke-width="3.5" stroke-miterlimit="10" d="M39.23,57.7c-0.51,0.37-0.65,0.94-0.71,1.21
		c-0.07,0.31-0.3,1.25,0.28,1.89c0.51,0.56,1.4,0.65,1.99,0.23c0.63-0.46,0.64-1.32,0.64-1.82c0-0.47,0-1.19-0.5-1.59
		C40.43,57.23,39.69,57.38,39.23,57.7z"/>
	<path fill="none" stroke="#F6EEEE" stroke-width="3.5" stroke-miterlimit="10" d="M60.63,57.75c-0.51,0.36-0.65,0.92-0.72,1.18
		c-0.08,0.31-0.3,1.22,0.29,1.85c0.51,0.55,1.41,0.64,2,0.22c0.64-0.45,0.64-1.29,0.64-1.77c0-0.46,0-1.16-0.5-1.55
		C61.84,57.28,61.09,57.43,60.63,57.75z"/>
	<path fill="none" stroke="#F6EEEE" stroke-width="3.5" stroke-miterlimit="10" d="M53.33,92.37"/>
	<path fill="none" stroke="#F6EEEE" stroke-width="3.5" stroke-miterlimit="10" d="M42.32,91.51"/>
	<line fill="none" stroke="#F6EEEE" stroke-width="3.5" stroke-miterlimit="10" x1="45.59" y1="90.51" x2="53.85" y2="90.51"/>
	<path fill="none" stroke="#F6EEEE" stroke-width="3.5" stroke-miterlimit="10" d="M50.06,75.09c-0.13,0.12-0.17,0.32-0.19,0.41
		c-0.02,0.11-0.08,0.42,0.07,0.64c0.13,0.19,0.37,0.22,0.52,0.08c0.17-0.15,0.17-0.45,0.17-0.61c0-0.16,0-0.4-0.13-0.54
		C50.38,74.93,50.18,74.98,50.06,75.09z"/>
</g>
<g id="Layer_5" display="none">
	
		<image display="inline" overflow="visible" width="1280" height="960" xlink:href="C264F743.jpg"  transform="matrix(0.34 0 0 0.34 -642.3015 -225.5574)">
	</image>
</g>
<g id="user-girl-1_00000025444597688976773770000007893097128798035355_" display="none">
	<path display="inline" fill="none" stroke="#000000" stroke-width="3.5" stroke-miterlimit="10" d="M-136.47,17.06
		c0.77-0.06,3.41-0.16,5.8,1.95c0.27,0.23,3.69,3.35,3.32,7.81c-0.27,3.32-2.48,5.32-4.15,6.82c-1.19,1.08-2.44,1.88-3.66,2.45"/>
	<path display="inline" fill="none" stroke="#000000" stroke-width="3" stroke-miterlimit="10" d="M-170.6,25.98
		c-0.25-0.05-0.47-0.1-0.69-0.14"/>
	<path display="inline" fill="none" stroke="#000000" stroke-width="3.5" stroke-miterlimit="10" d="M-100.62,119.97
		c0.66,5.4,0.99,8.1,0,10.73c-0.78,2.07-1.54,2.1-5.76,6.83c-4.04,4.53-3.89,5.1-5.76,6.83c-3.31,3.06-6.63,3.88-10.69,4.87
		c-8.25,2.03-14.33,0.44-19.73-0.97c-4.01-1.05-5.71-2.02-6.58-3.9c-1.53-3.29,0.28-7.54,0.82-8.78c3.32-7.77,11.53-9.46,13.16-9.76
		c1.09-1.06,2.55-2.82,2.46-4.88c-0.15-3.66-5.04-4.03-6.58-8.77c-0.73-2.26,0.13-2.93,1.65-12.68c1.2-7.69,1.02-9.55,0.82-10.73
		c-0.24-1.47-0.65-2.79-1.15-3.96c-0.56-10.21,4.34-18.83,6.09-20.43c0.82-0.76,2.03-1.34,2.46-2.93c0.55-2-0.75-3.35-2.46-7.8
		c0,0-1.54-3.99-2.47-8.78c-0.56-2.84-0.75-7.18-0.82-8.77c-3.65,1.74-7.05,1.53-7.94,1.45c-2.54-0.21-5.01-1.44-9.95-3.9
		c-4.64-2.3-5.57-3.28-9.12-4.87c-3.42-1.54-6.38-2.34-8.43-2.79c2.7-4.06,7.61-11.12,12.41-14.28c5.35-3.53,10.04-4.58,11.51-4.88
		c2.67-0.54,6.7-1.35,11.52,0c7.95,2.22,12.66,8.83,13.98,10.73c4.46,6.43,5.86,13.59,7.4,21.46c1.65,8.42,0.9,10.7,3.29,15.61
		c2.61,5.35,4.49,4.66,8.22,10.72c2.02,3.29,5.98,9.73,5.76,17.56c-0.12,4.18-1.28,3.35-4.11,15.61c-1.68,7.26-1.77,9.66-1.65,11.7
		C-102.06,113.84-101.32,114.3-100.62,119.97z"/>
	<path display="inline" fill="none" stroke="#000000" stroke-width="3" stroke-miterlimit="10" d="M-170.6,25.98
		c-0.47,0.71-0.87,1.33-1.2,1.82"/>
	
		<line display="inline" fill="none" stroke="#000000" stroke-width="3" stroke-miterlimit="10" x1="-135.16" y1="36.09" x2="-135.16" y2="36.08"/>
	<path display="inline" fill="none" stroke="#000000" stroke-width="3.5" stroke-miterlimit="10" d="M-170.53,26.33
		c-0.19,5.93-0.96,12.16-0.82,16.58c0.26,8.3,0.42,12.56,1.64,17.56c0.91,3.71,2.19,8.72,5.76,13.66c2.02,2.79,5.57,7.7,11.51,8.78
		c4.51,0.82,13.11-3.13,14.78-4.1"/>
	<path display="inline" fill="none" stroke="#000000" stroke-width="3.5" stroke-miterlimit="10" d="M-171.35,41.94
		c-0.58,0.01-3.26,0.14-4.11,0.98c-1.92,1.88-1.87,6.34,0,8.78c1.11,1.45,4.23,2.81,4.93,2.93"/>
	<path display="inline" fill="none" stroke="#000000" stroke-width="3.5" stroke-miterlimit="10" d="M-158.19,79.98
		c0.69,1.71,2.04,7.58,1.64,12.68c-0.32,4.15-1.65,7.2-2.47,8.78"/>
	<path display="inline" fill="none" stroke="#000000" stroke-width="3.5" stroke-miterlimit="10" d="M-159.73,100.8
		c0.75,1.15,4.69,5.18,8.94,6.49c5.49,1.69,11.53-2.34,12.34-2.93"/>
	<path display="inline" fill="none" stroke="#000000" stroke-width="3.5" stroke-miterlimit="10" d="M-158.19,99.49
		c-2.25,0.69-7.52,2.61-10.69,3.9c-7.91,3.21-13.17,5.41-18.09,10.73c-0.33,0.35-2.82,3.08-4.93,6.83
		c-7.33,13-3.91,29.86-3.02,34.85"/>
	<path display="inline" fill="none" stroke="#000000" stroke-width="3.5" stroke-miterlimit="10" d="M-196.02,155.09
		c20.81,6.77,28.29,9.23,37.01,10.73c10.29,1.78,18.69,3.11,29.61,0.98c11.61-2.27,20.81-2.43,23.85-9.75
		c2.4-5.78-0.03-14.79-1.64-18.53"/>
	<path display="inline" fill="none" stroke="#000000" stroke-width="4.9999" stroke-miterlimit="10" d="M-104.41,167.8"/>
	<ellipse display="inline" stroke="#000000" stroke-width="3" stroke-miterlimit="10" cx="-140.12" cy="47.81" rx="1.51" ry="1.5"/>
	
		<ellipse display="inline" stroke="#000000" stroke-width="2.9913" stroke-miterlimit="10" cx="-151.18" cy="59.81" rx="0.5" ry="1"/>
	<ellipse display="inline" stroke="#000000" stroke-width="3" stroke-miterlimit="10" cx="-162.24" cy="47.31" rx="1.51" ry="1.5"/>
	<path display="inline" fill="none" stroke="#000000" stroke-width="2" stroke-miterlimit="10" d="M-155.2,71.79
		c0.77,2.24,2.98,3.5,4.95,3.08c1.46-0.31,2.65-1.52,3.09-3.08"/>
</g>
<g id="Layer_8" display="none">
	<g display="inline">
		<path fill="none" stroke="#F6EEEE" stroke-width="3.5" stroke-miterlimit="10" d="M-136.31,16.62c0.77-0.06,3.41-0.16,5.8,1.95
			c0.27,0.23,3.69,3.35,3.32,7.81c-0.27,3.32-2.48,5.32-4.15,6.82c-1.19,1.08-2.44,1.88-3.66,2.45"/>
		<path fill="none" stroke="#F6EEEE" stroke-width="3" stroke-miterlimit="10" d="M-170.44,25.54c-0.25-0.05-0.47-0.1-0.69-0.14"/>
		<path fill="none" stroke="#F6EEEE" stroke-width="3.5" stroke-miterlimit="10" d="M-100.46,119.52c0.66,5.4,0.99,8.1,0,10.73
			c-0.78,2.07-1.54,2.1-5.76,6.83c-4.04,4.53-3.89,5.1-5.76,6.83c-3.31,3.06-6.63,3.88-10.69,4.87c-8.25,2.03-14.33,0.44-19.73-0.97
			c-4.01-1.05-5.71-2.02-6.58-3.9c-1.53-3.29,0.28-7.54,0.82-8.78c3.32-7.77,11.53-9.46,13.16-9.76c1.09-1.06,2.55-2.82,2.46-4.88
			c-0.15-3.66-5.04-4.03-6.58-8.77c-0.73-2.26,0.13-2.93,1.65-12.68c1.2-7.69,1.02-9.55,0.82-10.73c-0.24-1.47-0.65-2.79-1.15-3.96
			c-0.56-10.21,4.34-18.83,6.09-20.43c0.82-0.76,2.03-1.34,2.46-2.93c0.55-2-0.75-3.35-2.46-7.8c0,0-1.54-3.99-2.47-8.78
			c-0.56-2.84-0.75-7.18-0.82-8.77c-3.65,1.74-7.05,1.53-7.94,1.45c-2.54-0.21-5.01-1.44-9.95-3.9c-4.64-2.3-5.57-3.28-9.12-4.87
			c-3.42-1.54-6.38-2.34-8.43-2.79c2.7-4.06,7.61-11.12,12.41-14.28c5.35-3.53,10.04-4.58,11.51-4.88c2.67-0.54,6.7-1.35,11.52,0
			c7.95,2.22,12.66,8.83,13.98,10.73c4.46,6.43,5.86,13.59,7.4,21.46c1.65,8.42,0.9,10.7,3.29,15.61c2.61,5.35,4.49,4.66,8.22,10.72
			c2.02,3.29,5.98,9.73,5.76,17.56c-0.12,4.18-1.28,3.35-4.11,15.61c-1.68,7.26-1.77,9.66-1.65,11.7
			C-101.9,113.39-101.16,113.85-100.46,119.52z"/>
		<path fill="none" stroke="#F6EEEE" stroke-width="3" stroke-miterlimit="10" d="M-170.44,25.54c-0.47,0.71-0.87,1.33-1.2,1.82"/>
		<line fill="none" stroke="#F6EEEE" stroke-width="3" stroke-miterlimit="10" x1="-135" y1="35.65" x2="-135" y2="35.64"/>
		<path fill="none" stroke="#F6EEEE" stroke-width="3.5" stroke-miterlimit="10" d="M-170.36,25.88
			c-0.19,5.93-0.96,12.16-0.82,16.58c0.26,8.3,0.42,12.56,1.64,17.56c0.91,3.71,2.19,8.72,5.76,13.66c2.02,2.79,5.57,7.7,11.51,8.78
			c4.51,0.82,13.11-3.13,14.78-4.1"/>
		<path fill="none" stroke="#F6EEEE" stroke-width="3.5" stroke-miterlimit="10" d="M-171.19,41.49c-0.58,0.01-3.26,0.14-4.11,0.98
			c-1.92,1.88-1.87,6.34,0,8.78c1.11,1.45,4.23,2.81,4.93,2.93"/>
		<path fill="none" stroke="#F6EEEE" stroke-width="3.5" stroke-miterlimit="10" d="M-158.03,79.53c0.69,1.71,2.04,7.58,1.64,12.68
			c-0.32,4.15-1.65,7.2-2.47,8.78"/>
		<path fill="none" stroke="#F6EEEE" stroke-width="3.5" stroke-miterlimit="10" d="M-159.56,100.35c0.75,1.15,4.69,5.18,8.94,6.49
			c5.49,1.69,11.53-2.34,12.34-2.93"/>
		<path fill="none" stroke="#F6EEEE" stroke-width="3.5" stroke-miterlimit="10" d="M-158.03,99.04c-2.25,0.69-7.52,2.61-10.69,3.9
			c-7.91,3.21-13.17,5.41-18.09,10.73c-0.33,0.35-2.82,3.08-4.93,6.83c-7.33,13-3.91,29.86-3.02,34.85"/>
		<path fill="none" stroke="#F6EEEE" stroke-width="3.5" stroke-miterlimit="10" d="M-195.86,154.64
			c20.81,6.77,28.29,9.23,37.01,10.73c10.29,1.78,18.69,3.11,29.61,0.98c11.61-2.27,20.81-2.43,23.85-9.75
			c2.4-5.78-0.03-14.79-1.64-18.53"/>
		<path fill="none" stroke="#F6EEEE" stroke-width="4.9999" stroke-miterlimit="10" d="M-104.24,167.35"/>
		<ellipse stroke="#F6EEEE" stroke-width="3" stroke-miterlimit="10" cx="-139.95" cy="47.36" rx="1.51" ry="1.5"/>
		<ellipse stroke="#F6EEEE" stroke-width="2.9913" stroke-miterlimit="10" cx="-151.01" cy="59.36" rx="0.5" ry="1"/>
		<ellipse stroke="#F6EEEE" stroke-width="3" stroke-miterlimit="10" cx="-162.08" cy="46.86" rx="1.51" ry="1.5"/>
		<path fill="none" stroke="#F6EEEE" stroke-width="2" stroke-miterlimit="10" d="M-155.04,71.34c0.77,2.24,2.98,3.5,4.95,3.08
			c1.46-0.31,2.65-1.52,3.09-3.08"/>
	</g>
</g>
<g id="girl-1-no-face" display="none">
	<g display="inline">
		<path d="M-172.03,24.37c5.59,1.15,10.84,3.63,15.61,6.67c2.34,1.34,4.85,2.61,7.29,3.81c2.42,1.21,4.77,2.01,7.49,1.74
			c5.84-0.29,13.96-5.66,12.49-12.22c-0.82-3.81-4.22-7.31-8.33-6.96c0,0-0.06-0.73-0.06-0.73c4.55-0.52,8.46,3.2,9.51,7.43
			c1.3,4.56-1.87,8.66-5.36,11.21c-3.54,2.62-8.17,3.8-12.54,2.92c-4.19-1.14-7.81-3.2-11.68-5.09c-2.06-1.17-5.08-2.84-7.3-3.65
			c-2.5-0.98-5.09-1.73-7.72-2.21L-172.03,24.37L-172.03,24.37z"/>
	</g>
	<g display="inline">
		<path d="M-173.85,27.13c4.6-6.92,9.56-14.68,17.38-18.48c15.03-7.67,28.95-3.6,37.18,11.19c2.8,5.1,4.12,10.74,5.23,16.2
			c0.55,2.72,1.1,5.52,1.46,8.31c0.47,4.22,0.98,7.95,3.22,11.4c1.4,2.33,3.74,3.94,5.38,6.19c5.92,8.05,10.47,18.72,5.94,28.45
			c-0.83,2.6-1.51,5.27-2.14,7.96c-1.18,5.28-2.58,10.51-1.05,15.85c0.69,2.78,1,5.65,1.33,8.41c0.31,2.93,0.68,6.07-0.55,8.95
			c-1.27,2.73-3.85,4.4-5.68,6.7c-2.95,3.08-5.02,7.08-8.89,9.31c-6.39,3.43-14.04,4.66-21.19,3.77c-2.88-0.39-5.63-1.1-8.35-1.82
			c-2.94-0.7-6.69-2.33-7.37-5.76c-1.04-4.69,1.01-9.35,3.82-12.95c2.96-3.46,7.22-5.6,11.63-6.45c0.14-0.04-0.76,0.39-0.74,0.39
			c1.37-1.29,2.26-2.89,1.96-4.14c-0.45-1.59-2.45-2.5-3.72-3.81c-1.32-1.2-2.41-2.88-2.88-4.68c-0.48-1.75,0.1-3.73,0.39-5.33
			c0,0,0.59-3.07,0.59-3.07c0.74-4.51,1.69-9.16,1.69-13.7c-0.25-3.35-1.76-6.51-3.89-9.09c0,0,2.31-1.92,2.31-1.92
			c2.16,2.59,3.76,5.75,4.36,9.1c0.6,3.26-0.1,6.69-0.49,9.88c-0.44,3.03-1.02,6.36-1.63,9.38c-1.37,4.84,0.31,6.32,3.98,9.22
			c3.7,2.87,2.57,7.48-0.58,10.3c0,0-0.32,0.31-0.32,0.31s-0.46,0.09-0.46,0.09s-0.03,0.01-0.03,0.01
			c-5.06,0.94-9.89,3.94-11.91,8.59c-1.09,2.34-1.79,4.98-1.24,7.09c0.59,2.46,3.06,3.01,5.3,3.7c5.23,1.46,10.52,2.57,15.91,1.82
			c2.62-0.33,5.36-1.04,7.85-1.81c2.5-0.79,4.68-2.12,6.47-3.95c1.63-1.92,3.48-4.47,5.3-6.39c4.94-5.46,6.59-5.18,5.55-13.43
			c-0.32-2.77-0.61-5.46-1.26-8.09c-1.63-5.57-0.2-11.63,1.09-17.11c0.64-2.73,1.35-5.46,2.22-8.17c0.84-2.61,1.98-4.89,1.76-7.64
			c-0.1-6.68-3.39-12.99-7.22-18.34c-1.66-2.24-4.05-3.92-5.52-6.42c-2.43-3.7-3.14-8.17-3.57-12.46c-0.35-2.73-0.86-5.4-1.41-8.14
			c-1.08-5.42-2.36-10.78-4.93-15.48c-3.78-6.93-10.28-12.93-18.34-13.65c-7.83-0.43-16.2,2.55-21.91,8.03
			c-3.83,3.8-6.96,8.38-10,13.02L-173.85,27.13L-173.85,27.13z"/>
	</g>
	<g display="inline">
		<path d="M-134.7,36.01c0.04,5.52,0.79,10.95,2.58,16.17c0.52,1.63,1.22,3.26,2.03,5.1c1.34,2.59,1.19,5.5-1.37,7.24
			c-1.78,1.27-2.55,3.13-3.48,5.06c-1.14,2.65-1.92,5.49-2.3,8.38c-0.38,2.89-0.38,5.84,0.03,8.74c0,0-1.26,0.2-1.26,0.2
			c-1.25-7.52-0.16-15.67,3.98-22.2c0.66-1.19,2.35-1.96,2.87-3.12c0.52-1.19-0.02-2.19-0.55-3.37c-0.64-1.36-1.34-2.79-1.9-4.25
			c0.03,0.09,0,0-0.02-0.04c-0.1-0.25-0.26-0.69-0.35-0.95c-2.04-5.38-3.02-11.12-3.25-16.83C-137.69,36.15-134.7,36.01-134.7,36.01
			L-134.7,36.01z"/>
	</g>
	<g display="inline">
		<path d="M-170.06,26.37c-0.27,6.77-1.24,13.29-0.84,20.04c0.16,9.78,1.53,20,7.57,27.99c3.89,5.5,9.18,9.24,15.94,6.62
			c3.1-0.97,6.22-2.31,9.07-3.83c0,0,0.97,1.66,0.97,1.66c-3.06,1.68-6.13,3.05-9.42,4.13c-7.71,3.02-13.98-1.07-18.42-7.2
			c-8.49-11.12-8.85-26.09-8.4-39.5c0.2-3.37,0.46-6.71,0.55-10.01C-173.06,26.28-170.06,26.37-170.06,26.37L-170.06,26.37z"/>
	</g>
	<path display="inline" fill="none" stroke="#000000" stroke-width="3" stroke-miterlimit="10" d="M-172.38,41.93
		c-0.58,0.01-3.26,0.14-4.11,0.98c-1.92,1.88-1.87,6.34,0,8.78c1.11,1.45,4.23,2.81,4.93,2.93"/>
	<g display="inline">
		<path d="M-159.22,79.98c2.77,7,3.65,15.03,0.51,22.15c0,0-2.67-1.38-2.67-1.38C-157.61,94.7-157.52,86.79-159.22,79.98
			L-159.22,79.98z"/>
	</g>
	<path display="inline" fill="none" stroke="#000000" stroke-width="3" stroke-miterlimit="10" d="M-160.76,100.8
		c0.75,1.15,4.69,5.18,8.94,6.49c5.49,1.69,11.53-2.34,12.34-2.93"/>
	<path display="inline" fill="none" stroke="#000000" stroke-width="3" stroke-miterlimit="10" d="M-159.22,99.49
		c-2.25,0.69-7.52,2.61-10.69,3.9c-7.91,3.21-13.17,5.41-18.09,10.73c-0.33,0.35-2.82,3.08-4.93,6.83
		c-7.33,13-3.91,29.86-3.02,34.85"/>
	<path display="inline" fill="none" stroke="#000000" stroke-width="3" stroke-miterlimit="10" d="M-197.05,155.09
		c20.81,6.77,28.29,9.23,37.01,10.73c10.29,1.78,18.69,3.11,29.61,0.98c11.61-2.27,20.81-2.43,23.85-9.75
		c2.4-5.78-0.03-14.79-1.64-18.53"/>
</g>
</svg>
